<svg xmlns="http://www.w3.org/2000/svg" width="1024" height="1024" viewBox="0 0 1024 1024" role="img" aria-label="Ice table texture">
  <defs>
    <linearGradient id="iceBase" x1="0" y1="0" x2="1" y2="1">
      <stop offset="0%" stop-color="#e6f9ff" />
      <stop offset="45%" stop-color="#c8ebf8" />
      <stop offset="100%" stop-color="#9bd1e8" />
    </linearGradient>
    <linearGradient id="crackA" x1="0" y1="0" x2="1" y2="0">
      <stop offset="0%" stop-color="#ffffff" stop-opacity="0" />
      <stop offset="50%" stop-color="#ffffff" stop-opacity="0.55" />
      <stop offset="100%" stop-color="#ffffff" stop-opacity="0" />
    </linearGradient>
    <linearGradient id="crackB" x1="0" y1="0" x2="0" y2="1">
      <stop offset="0%" stop-color="#d8f5ff" stop-opacity="0" />
      <stop offset="50%" stop-color="#d8f5ff" stop-opacity="0.45" />
      <stop offset="100%" stop-color="#d8f5ff" stop-opacity="0" />
    </linearGradient>
  </defs>

  <rect width="1024" height="1024" fill="url(#iceBase)" />

  <g opacity="0.5">
    <path d="M80 160 L300 240 L460 200 L720 330 L940 250" stroke="url(#crackA)" stroke-width="8" fill="none" />
    <path d="M120 500 L300 430 L520 550 L690 500 L890 640" stroke="url(#crackB)" stroke-width="7" fill="none" />
    <path d="M60 820 L250 710 L420 790 L620 700 L860 830" stroke="url(#crackA)" stroke-width="6" fill="none" />
    <path d="M230 70 L210 280 L260 420 L220 630 L300 930" stroke="url(#crackB)" stroke-width="6" fill="none" />
    <path d="M570 40 L520 230 L600 420 L560 650 L620 980" stroke="url(#crackA)" stroke-width="6" fill="none" />
    <path d="M860 90 L780 250 L820 470 L760 690 L820 960" stroke="url(#crackB)" stroke-width="6" fill="none" />
  </g>

  <g fill="#ffffff" opacity="0.22">
    <circle cx="180" cy="320" r="70" />
    <circle cx="680" cy="180" r="100" />
    <circle cx="540" cy="760" r="120" />
    <circle cx="900" cy="520" r="80" />
  </g>
</svg>
